<?xml version="1.0" encoding="UTF-8"?>
<svg xmlns="http://www.w3.org/2000/svg" viewBox="0 0 393 330" role="img" aria-labelledby="title desc">
  <title id="title">UPF Logo</title>
  <desc id="desc">Transparent vector version of the UPF logo.</desc>
  <path d="M 70 139 L 70 150 L 121 151 L 121 210 L 145 237 L 145 151 L 184 151 L 183 281 L 194 293 L 208 280 L 208 151 L 247 151 L 247 233 L 271 206 L 271 151 L 322 150 L 322 139 Z M 348 82 L 348 105 L 373 105 L 373 82 Z M 20 81 L 20 105 L 45 105 L 45 81 Z M 322 69 L 272 69 L 272 130 L 284 130 L 285 105 L 309 105 L 309 94 L 285 94 L 284 81 L 322 80 Z M 221 69 L 171 69 L 171 130 L 183 130 L 183 106 L 184 105 L 221 105 Z M 183 81 L 184 80 L 208 80 L 209 81 L 209 93 L 208 94 L 184 94 L 183 93 Z M 71 69 L 71 130 L 120 130 L 120 69 L 109 69 L 108 119 L 83 118 L 83 69 Z M 71 44 L 71 56 L 322 56 L 322 44 Z" fill="#9ec1d7" fill-rule="evenodd"/>
</svg>
